<svg xmlns="http://www.w3.org/2000/svg" width="30" height="31" viewBox="0 0 30 31" fill="none">
  <path fill-rule="evenodd" clip-rule="evenodd" d="M27.3661 29.8839C27.8543 30.372 28.6457 30.372 29.1339 29.8839C29.622 29.3957 29.622 28.6043 29.1339 28.1161L16.5178 15.5L29.1339 2.88388C29.622 2.39573 29.622 1.60427 29.1339 1.11612C28.6457 0.627962 27.8543 0.627962 27.3661 1.11612L14.75 13.7322L2.13388 1.11612C1.64573 0.627961 0.854271 0.627961 0.366116 1.11612C-0.122038 1.60427 -0.122038 2.39573 0.366116 2.88388L12.9822 15.5L0.366117 28.1161C-0.122039 28.6043 -0.122039 29.3957 0.366117 29.8839C0.854272 30.372 1.64573 30.372 2.13388 29.8839L14.75 17.2678L27.3661 29.8839Z" fill="#27272C"/>
</svg>