<svg xmlns="http://www.w3.org/2000/svg" width="80" height="81" viewBox="0 0 80 81" fill="none">
  <g clip-path="url(#clip0_1531_2328)">
    <path d="M14.4102 29.9302L21.9305 43.7422C22.131 44.1105 22.0805 44.5647 21.8039 44.8799L11.2032 56.9625C10.5746 57.679 11.2096 58.7852 12.1453 58.6038L24.0135 56.3023C24.6315 56.1824 25.2051 56.6565 25.2038 57.286L25.1759 70.7121C25.1741 71.6087 26.262 72.0545 26.8898 71.4144L40.9297 57.1015C41.3344 56.6889 42.0037 56.7043 42.389 57.1351L51.4102 67.2221C51.9432 67.8181 52.9255 67.5784 53.1242 66.8039L57.0147 51.6378C57.1662 51.047 57.8068 50.7283 58.3695 50.9638L68.0016 54.9961C68.8908 55.3683 69.74 54.3909 69.2473 53.5625L63.734 44.2926C63.4326 43.7857 63.633 43.1294 64.1661 42.8773L74.2486 38.111C75.1563 37.6819 74.9363 36.3324 73.9393 36.2139L65.5742 35.2194C64.9466 35.1448 64.5447 34.514 64.7424 33.9137L68.9263 21.2052C69.2078 20.3502 68.3047 19.5877 67.509 20.0085L57.0327 25.548C56.499 25.8302 55.839 25.5788 55.6282 25.0131L48.79 6.66199C48.4693 5.80137 47.2553 5.79198 46.9214 6.64753L39.2758 26.2338C39.0274 26.8701 38.2285 27.0757 37.7039 26.6383L32.0807 21.9502C31.4416 21.4174 30.4692 21.8527 30.4409 22.6844L30.1386 31.5954C30.1163 32.252 29.4777 32.7091 28.849 32.5185L15.5786 28.495C14.7226 28.2354 13.9825 29.1445 14.4102 29.9302Z" fill="#BCA9FF"/>
    <path d="M57.6567 65.8623V75.2" stroke="#957AFA" stroke-width="2.5" stroke-linecap="round" stroke-linejoin="round"/>
    <path d="M12.3242 6.17214C4.64663 11.7324 8.61302 17.6092 14.7574 17.8527C20.7555 18.0903 21.0115 9.84681 15.8161 11.2337C11.2594 12.4502 10.1703 22.1597 20.1839 23.4253" stroke="#957AFA" stroke-width="2.5" stroke-linecap="round" stroke-linejoin="round"/>
    <path d="M69 64.5L72 68.5" stroke="#957AFA" stroke-width="2.5" stroke-linecap="round" stroke-linejoin="round"/>
  </g>
  <defs>
    <clipPath id="clip0_1531_2328">
      <rect width="80" height="80" fill="white" transform="translate(0 0.5)"/>
    </clipPath>
  </defs>
</svg>