<svg xmlns="http://www.w3.org/2000/svg" width="80" height="81" viewBox="0 0 80 81" fill="none">
  <path fill-rule="evenodd" clip-rule="evenodd" d="M57.585 61.7447C58.2398 61.41 58.8891 61.0513 59.5317 60.6686C73.457 52.3753 78.9484 35.918 71.7971 23.9104C64.6459 11.9027 47.5599 8.89171 33.6346 17.1851C19.7093 25.4784 14.2178 41.9357 21.3691 53.9433C27.0861 63.5426 39.1522 67.3922 50.8769 64.3132L60.0588 69.502C60.953 70.0073 61.9368 68.9976 61.4083 68.1169L57.585 61.7447Z" fill="#97B2FF"/>
  <path fill-rule="evenodd" clip-rule="evenodd" d="M56.5198 29.7315C56.9193 28.9018 56.5706 27.9053 55.7408 27.5058C54.9111 27.1063 53.9146 27.4551 53.5151 28.2848L50.9585 33.5945L46.2393 33.7421L47.8491 30.3986C48.2486 29.5689 47.8998 28.5724 47.0701 28.1729C46.2403 27.7734 45.2438 28.1221 44.8443 28.9519L42.4814 33.8595L37.6238 34.0114C36.7034 34.0401 35.9805 34.8096 36.0093 35.7301C36.0381 36.6505 36.8076 37.3734 37.728 37.3446L40.8504 37.247L39.5752 39.8955L34.2906 40.0558C33.3701 40.0837 32.6466 40.8525 32.6745 41.773C32.7024 42.6935 33.4712 43.417 34.3917 43.3891L37.945 43.2814L36.1736 46.9603C35.7741 47.79 36.1229 48.7865 36.9526 49.186C37.7824 49.5855 38.7789 49.2367 39.1784 48.407L41.7011 43.1674L46.4183 43.0244L44.8444 46.2932C44.4449 47.1229 44.7937 48.1194 45.6234 48.5189C46.4531 48.9184 47.4496 48.5696 47.8491 47.7399L50.1744 42.9104L56.4019 42.7215C57.3224 42.6936 58.0459 41.9248 58.018 41.0043C57.9901 40.0838 57.2213 39.3603 56.3008 39.3882L51.8047 39.5246L53.0854 36.8646L59.0715 36.6775C59.9919 36.6487 60.7148 35.8792 60.686 34.9587C60.6572 34.0383 59.8877 33.3154 58.9673 33.3442L54.7164 33.4771L56.5198 29.7315ZM48.0485 39.6385L49.3275 36.982L44.6082 37.1296L43.3314 39.7816L48.0485 39.6385Z" fill="#5881F3"/>
  <path d="M20.233 22.2256L16.074 16.5002" stroke="#5881F3" stroke-width="2.5" stroke-linecap="round" stroke-linejoin="round"/>
  <path d="M14.0505 32.1484L7.09844 30.8271" stroke="#5881F3" stroke-width="2.5" stroke-linecap="round" stroke-linejoin="round"/>
  <path d="M15.0309 25.8765L10.7697 22.5631" stroke="#5881F3" stroke-width="2.5" stroke-linecap="round" stroke-linejoin="round"/>
</svg>