<svg xmlns="http://www.w3.org/2000/svg" width="80" height="81" viewBox="0 0 80 81" fill="none">
  <path d="M11 15.8218L69 44.4604" stroke="#F1805D" stroke-width="4.00186" stroke-linecap="round" stroke-linejoin="round"/>
  <path fill-rule="evenodd" clip-rule="evenodd" d="M25.3333 18.6523C29.3834 18.6523 32.6667 15.3723 32.6667 11.3262C32.6667 7.28003 29.3834 4 25.3333 4C21.2832 4 18 7.28003 18 11.3262C18 15.3723 21.2832 18.6523 25.3333 18.6523ZM36.7249 33.3989L21.6956 69.4338C21.3006 70.381 21.6897 71.4785 22.6014 71.9497C34.1549 77.9198 41.1307 78.1104 52.1711 71.9587C53.0346 71.4775 53.3952 70.4234 53.0277 69.5057L38.5762 33.4121C38.2433 32.5808 37.0695 32.5724 36.7249 33.3989Z" fill="#FFAA98"/>
  <path d="M58 15C66.77 20.44 65.2223 29.28 64.1906 32" stroke="#F1805D" stroke-width="2.5" stroke-linecap="round" stroke-linejoin="round" stroke-dasharray="5 5"/>
</svg>